<svg width="89" height="103" viewBox="0 0 89 103" fill="none" xmlns="http://www.w3.org/2000/svg">
<ellipse opacity="0.5" cx="44.5" cy="90.4552" rx="44.5" ry="12.5449" fill="url(#paint0_radial_927_33926)"/>
<path fill-rule="evenodd" clip-rule="evenodd" d="M50.2928 74.9151C68.4625 72.3896 82.4563 56.6609 82.4563 37.6346C82.4563 16.8496 65.7559 0 45.1549 0C24.5538 0 7.85339 16.8496 7.85339 37.6346C7.85339 56.1734 21.1393 71.5814 38.6287 74.6952L44.5 91.1154L50.2928 74.9151Z" fill="#05070D"/>
<path d="M61.0866 20.3787L33.804 60.4734L26.814 55.5988L54.0966 15.4958L61.0866 20.3787Z" fill="#FFB71B"/>
<path d="M54.6601 48.947H63.8014C64.0419 48.947 64.2445 48.7322 64.2445 48.4921V47.355C64.2445 47.115 64.0293 46.9002 63.8014 46.9002H57.7747C59.1674 45.3082 60.826 43.3625 62.0795 41.8464C63.3582 40.305 64.3458 39.0415 64.3458 37.2221C64.3458 34.7331 62.5479 32.5726 59.1675 32.5726C56.3567 32.5726 54.5842 34.8974 54.5842 34.8974C54.4196 35.0869 54.4702 35.3775 54.6095 35.5165L55.4071 36.3251C55.5971 36.5146 55.8503 36.5146 56.0402 36.3251C56.6732 35.6428 57.7368 34.7331 59.0408 34.7331C61.1172 34.7331 61.9529 36.1103 61.9529 37.3232C61.9529 38.2708 61.3325 39.4585 60.155 40.7851C58.4078 42.8698 55.9516 45.8894 54.2043 47.8857V48.5048C54.2043 48.7322 54.3943 48.947 54.6601 48.947Z" fill="white"/>
<defs>
<radialGradient id="paint0_radial_927_33926" cx="0" cy="0" r="1" gradientUnits="userSpaceOnUse" gradientTransform="translate(44.5 90.4552) rotate(90) scale(12.5449 44.5)">
<stop/>
<stop offset="0.725849" stop-opacity="0"/>
</radialGradient>
</defs>
</svg>
