<svg width="201" height="200" viewBox="0 0 201 200" fill="none" xmlns="http://www.w3.org/2000/svg">
<path d="M100.5 195C100.5 197.761 102.74 200.013 105.498 199.875C116.923 199.303 128.177 196.775 138.768 192.388C150.901 187.362 161.925 179.997 171.211 170.711C180.497 161.425 187.862 150.401 192.888 138.268C197.913 126.136 200.5 113.132 200.5 100C200.5 86.8678 197.913 73.8642 192.888 61.7317C187.862 49.5991 180.497 38.5752 171.211 29.2893C161.925 20.0035 150.901 12.6375 138.768 7.61205C128.177 3.22511 116.923 0.696675 105.498 0.124973C102.74 -0.0130395 100.5 2.23858 100.5 5V5C100.5 7.76142 102.74 9.98552 105.498 10.1389C115.608 10.7011 125.564 12.9665 134.942 16.8508C145.861 21.3738 155.782 28.0031 164.14 36.3604C172.497 44.7177 179.126 54.6392 183.649 65.5585C188.172 76.4778 190.5 88.181 190.5 100C190.5 111.819 188.172 123.522 183.649 134.442C179.126 145.361 172.497 155.282 164.14 163.64C155.782 171.997 145.861 178.626 134.942 183.149C125.564 187.033 115.608 189.299 105.498 189.861C102.74 190.014 100.5 192.239 100.5 195V195Z" fill="#2EBDB5"/>
</svg>
