<svg width="201" height="200" viewBox="0 0 201 200" fill="none" xmlns="http://www.w3.org/2000/svg">
<path d="M5.5 100C2.73858 100 0.486961 102.24 0.624956 104.998C1.52678 123.022 7.29255 140.5 17.353 155.557C28.3412 172.002 43.959 184.819 62.2317 192.388C80.5043 199.957 100.611 201.937 120.009 198.079C139.407 194.22 157.225 184.696 171.211 170.711C185.196 156.725 194.72 138.907 198.579 119.509C202.437 100.111 200.457 80.0043 192.888 61.7317C185.319 43.459 172.502 27.8412 156.057 16.853C141 6.79255 123.522 1.02678 105.498 0.124956C102.74 -0.0130394 100.5 2.23858 100.5 5V5C100.5 7.76142 102.74 9.98551 105.498 10.1388C121.542 11.031 137.089 16.2062 150.501 25.1677C165.302 35.0571 176.837 49.1131 183.649 65.5585C190.461 82.0038 192.243 100.1 188.771 117.558C185.298 135.016 176.726 151.053 164.14 163.64C151.553 176.226 135.516 184.798 118.058 188.271C100.6 191.743 82.5038 189.961 66.0585 183.149C49.6131 176.337 35.5571 164.802 25.6677 150.001C16.7062 136.589 11.531 121.042 10.6388 104.997C10.4855 102.24 8.26142 100 5.5 100V100Z" fill="#2EBC8A"/>
</svg>
