<svg width="201" height="200" viewBox="0 0 201 200" fill="none" xmlns="http://www.w3.org/2000/svg">
<path d="M167.675 167.175C169.628 169.128 172.804 169.136 174.657 167.088C186.764 153.706 195.046 137.269 198.579 119.509C202.437 100.111 200.457 80.0043 192.888 61.7317C185.319 43.459 172.502 27.8412 156.057 16.853C141 6.79255 123.522 1.02678 105.498 0.124956C102.74 -0.0130394 100.5 2.23858 100.5 5V5C100.5 7.76142 102.74 9.98551 105.498 10.1388C121.542 11.031 137.089 16.2062 150.501 25.1677C165.302 35.0571 176.837 49.1131 183.649 65.5585C190.461 82.0038 192.243 100.1 188.771 117.558C185.624 133.379 178.29 148.031 167.575 160.008C165.734 162.066 165.723 165.223 167.675 167.175V167.175Z" fill="#2E9BBD"/>
</svg>
