<svg width="200" height="200" viewBox="0 0 200 200" fill="none" xmlns="http://www.w3.org/2000/svg">
<path d="M17.7276 52.5C15.3361 51.1193 12.266 51.9337 11.0065 54.3912C1.79733 72.3597 -1.7746 92.7362 0.827429 112.837C3.64386 134.595 13.5373 154.823 28.9832 170.403C44.429 185.984 64.57 196.052 86.3023 199.057C108.035 202.063 130.152 197.837 149.247 187.033C168.341 176.229 183.352 159.445 191.967 139.268C200.583 119.091 202.323 96.6414 196.921 75.3777C191.519 54.114 179.275 35.2168 162.074 21.5983C146.183 9.01657 126.876 1.5855 106.731 0.226743C103.976 0.0409128 101.697 2.2533 101.649 5.01431V5.01431C101.601 7.77532 103.803 10.038 106.557 10.2391C124.507 11.55 141.696 18.2188 155.867 29.4385C171.347 41.6952 182.367 58.7026 187.229 77.8399C192.091 96.9773 190.524 117.182 182.771 135.341C175.017 153.501 161.507 168.606 144.322 178.33C127.137 188.054 107.231 191.856 87.6721 189.152C68.113 186.447 49.9861 177.385 36.0848 163.363C22.1836 149.34 13.2795 131.136 10.7447 111.554C8.42434 93.6285 11.5591 75.4601 19.679 59.3976C20.9249 56.9332 20.119 53.8807 17.7276 52.5V52.5Z" fill="#0F9373"/>
</svg>
