<svg width="43" height="43" viewBox="0 0 43 43" fill="none" xmlns="http://www.w3.org/2000/svg">
<rect width="43" height="43" rx="21.5" fill="#F4F4F4"/>
<path d="M11 32V15.8125H15.8125V11H27.1875V20.625H32V32H23.0458V27.1875H19.9542V32H11ZM12.75 30.25H15.8125V27.1875H12.75V30.25ZM12.75 25.4375H15.8125V22.375H12.75V25.4375ZM12.75 20.625H15.8125V17.5625H12.75V20.625ZM17.5625 25.4375H20.625V22.375H17.5625V25.4375ZM17.5625 20.625H20.625V17.5625H17.5625V20.625ZM17.5625 15.8125H20.625V12.75H17.5625V15.8125ZM22.375 25.4375H25.4375V22.375H22.375V25.4375ZM22.375 20.625H25.4375V17.5625H22.375V20.625ZM22.375 15.8125H25.4375V12.75H22.375V15.8125ZM27.1875 30.25H30.25V27.1875H27.1875V30.25ZM27.1875 25.4375H30.25V22.375H27.1875V25.4375Z" fill="#131B2F"/>
</svg>
