<svg width="43" height="43" viewBox="0 0 43 43" fill="none" xmlns="http://www.w3.org/2000/svg">
<rect width="43" height="43" rx="21.5" fill="#F4F4F4"/>
<path d="M13.058 26.2726L12 25.4583L16.0591 18.6726L18.6407 21.8393L22.083 16.0036L24.4364 19.6679C24.2061 19.698 23.983 19.747 23.767 19.8149C23.5511 19.8827 23.3352 19.9619 23.1193 20.0524L22.1477 18.4917L18.8539 24.1238L16.2318 20.9345L13.058 26.2726ZM30.0716 31L27.1784 27.969C26.8761 28.1952 26.5487 28.3687 26.196 28.4893C25.8434 28.6099 25.4799 28.6702 25.1057 28.6702C24.0861 28.6702 23.2195 28.2961 22.5058 27.5479C21.7921 26.7997 21.4352 25.8912 21.4352 24.8223C21.4352 23.7535 21.7923 22.8458 22.5065 22.0994C23.2207 21.353 24.0879 20.9798 25.1082 20.9798C26.1285 20.9798 26.9949 21.3536 27.7074 22.1013C28.4199 22.849 28.7761 23.7569 28.7761 24.825C28.7761 25.2171 28.715 25.5978 28.5926 25.9673C28.4703 26.3367 28.3083 26.6907 28.1068 27.0292L31 30.0274L30.0716 31ZM25.1026 27.3131C25.7668 27.3131 26.3292 27.0729 26.7898 26.5925C27.2504 26.1121 27.4807 25.524 27.4807 24.8282C27.4807 24.1324 27.2514 23.5433 26.7928 23.0607C26.3342 22.5782 25.7729 22.3369 25.1087 22.3369C24.4446 22.3369 23.8822 22.5771 23.4216 23.0575C22.961 23.5379 22.7307 24.126 22.7307 24.8218C22.7307 25.5176 22.96 26.1067 23.4185 26.5893C23.8771 27.0718 24.4385 27.3131 25.1026 27.3131ZM26.7034 19.894C26.4875 19.8036 26.2644 19.7433 26.0341 19.7131C25.8038 19.6829 25.5663 19.6528 25.3216 19.6226L29.942 12L31 12.8143L26.7034 19.894Z" fill="#131B2F"/>
</svg>
