<svg width="43" height="43" viewBox="0 0 43 43" fill="none" xmlns="http://www.w3.org/2000/svg">
<rect width="43" height="43" rx="21.5" fill="#F4F4F4"/>
<path d="M30.7262 25.2589V15.6527L24.4762 11.2673L18.2262 15.6527V19.5012H16.4405V14.7578L24.4762 9L32.5119 14.7578V25.2589H30.7262ZM25.0714 17.3532H26.2619V16.1599H25.0714V17.3532ZM22.6905 17.3532H23.881V16.1599H22.6905V17.3532ZM25.0714 19.7399H26.2619V18.5465H25.0714V19.7399ZM22.6905 19.7399H23.881V18.5465H22.6905V19.7399ZM24.6548 34L15.3988 31.3449V33.0453H9V21.2912H18.1964L25.7857 24.1551C26.3214 24.354 26.7728 24.6772 27.1399 25.1247C27.5069 25.5722 27.6905 26.2136 27.6905 27.0489H31.0833C31.9167 27.0489 32.6111 27.3473 33.1667 27.9439C33.7222 28.5406 34 29.3461 34 30.3604V31.136L24.6548 34ZM10.7857 31.2554H13.5833V23.0811H10.7857V31.2554ZM24.5357 32.1504L32.1548 29.8234C32.0357 29.4455 31.8869 29.187 31.7083 29.0477C31.5298 28.9085 31.3214 28.8389 31.0833 28.8389H24.9226C24.3274 28.8389 23.7768 28.7991 23.2708 28.7196C22.7649 28.64 22.2837 28.5306 21.8274 28.3914L19.4167 27.6456L20.0714 25.9153L22.244 26.6313C22.7401 26.7904 23.2113 26.8998 23.6577 26.9594C24.1042 27.0191 24.8135 27.0489 25.7857 27.0489C25.7857 26.8103 25.7411 26.5766 25.6518 26.3479C25.5625 26.1191 25.4087 25.9551 25.1905 25.8556L17.8988 23.0811H15.3988V29.4654L24.5357 32.1504Z" fill="#131B2F"/>
</svg>
