<svg width="43" height="43" viewBox="0 0 43 43" fill="none" xmlns="http://www.w3.org/2000/svg">
<rect width="43" height="43" rx="21.5" fill="#F4F4F4"/>
<path d="M15.2659 32L15 30.075L18.7523 19.8667C18.9689 20.0806 19.2102 20.2556 19.4761 20.3917C19.742 20.5278 20.0227 20.6444 20.3182 20.7417L16.6841 30.6292L15.2659 32ZM27.7341 32L26.3159 30.6292L22.6227 20.7708C22.9182 20.6736 23.2038 20.5569 23.4795 20.4208C23.7553 20.2847 24.0015 20.1097 24.2182 19.8958L28 30.075L27.7341 32ZM21.5 20.3333C20.5152 20.3333 19.678 19.9931 18.9886 19.3125C18.2992 18.6319 17.9545 17.8056 17.9545 16.8333C17.9545 16.0167 18.1958 15.2924 18.6784 14.6604C19.161 14.0285 19.8061 13.625 20.6136 13.45V11H22.3864V13.45C23.1939 13.625 23.839 14.0285 24.3216 14.6604C24.8042 15.2924 25.0455 16.0167 25.0455 16.8333C25.0455 17.8056 24.7008 18.6319 24.0114 19.3125C23.322 19.9931 22.4848 20.3333 21.5 20.3333ZM21.5 18.5833C21.9924 18.5833 22.411 18.4132 22.7557 18.0729C23.1004 17.7326 23.2727 17.3194 23.2727 16.8333C23.2727 16.3472 23.1004 15.934 22.7557 15.5938C22.411 15.2535 21.9924 15.0833 21.5 15.0833C21.0076 15.0833 20.589 15.2535 20.2443 15.5938C19.8996 15.934 19.7273 16.3472 19.7273 16.8333C19.7273 17.3194 19.8996 17.7326 20.2443 18.0729C20.589 18.4132 21.0076 18.5833 21.5 18.5833Z" fill="#131B2F"/>
</svg>
