<svg width="43" height="43" viewBox="0 0 43 43" fill="none" xmlns="http://www.w3.org/2000/svg">
<rect width="43" height="43" rx="21.5" fill="#F4F4F4"/>
<path fill-rule="evenodd" clip-rule="evenodd" d="M26.5803 20.496L26.7203 21.1958H27.6538L27.7938 20.496C27.8871 20.4649 27.9766 20.4299 28.0622 20.3911C28.1477 20.3522 28.2294 20.2939 28.3072 20.2161L28.9606 20.4494L29.4274 19.6097L28.9139 19.1432V18.5834L29.4274 18.1169L28.9606 17.2772L28.3072 17.5105C28.245 17.4483 28.1672 17.3939 28.0738 17.3472C27.9805 17.3006 27.8871 17.2617 27.7938 17.2306L27.6538 16.5309H26.7203L26.5803 17.2306C26.4869 17.2617 26.3936 17.3006 26.3002 17.3472C26.2069 17.3939 26.1291 17.4483 26.0669 17.5105L25.4134 17.2772L24.9467 18.1169L25.4601 18.5834V19.1432L24.9467 19.6097L25.4134 20.4494L26.0669 20.2161C26.1447 20.2939 26.2263 20.3522 26.3119 20.3911C26.3975 20.4299 26.4869 20.4649 26.5803 20.496ZM27.6771 19.3531C27.5371 19.4931 27.3737 19.563 27.187 19.563C27.0003 19.563 26.837 19.4931 26.697 19.3531C26.5569 19.2132 26.4869 19.0499 26.4869 18.8633C26.4869 18.6767 26.5569 18.5134 26.697 18.3735C26.837 18.2335 27.0003 18.1636 27.187 18.1636C27.3737 18.1636 27.5371 18.2335 27.6771 18.3735C27.8171 18.5134 27.8871 18.6767 27.8871 18.8633C27.8871 19.0499 27.8171 19.2132 27.6771 19.3531ZM28.6806 15.5512L28.8673 16.5309H30.1741L30.3608 15.5512C30.5008 15.5046 30.6292 15.4463 30.7459 15.3763C30.8626 15.3063 30.9676 15.2247 31.0609 15.1314L32.0411 15.4579L32.6945 14.3384L31.901 13.6386C31.9322 13.5609 31.9477 13.4987 31.9477 13.452V13.0788C31.9477 13.0322 31.9322 12.97 31.901 12.8922L32.6945 12.1925L32.0411 11.0729L31.0609 11.3995C30.9676 11.3062 30.8626 11.2245 30.7459 11.1546C30.6292 11.0846 30.5008 11.0263 30.3608 10.9796L30.1741 10H28.8673L28.6806 10.9796C28.5406 11.0263 28.4122 11.0846 28.2955 11.1546C28.1788 11.2245 28.0738 11.3062 27.9805 11.3995L27.0003 11.0729L26.3469 12.1925L27.1404 12.8922C27.1092 12.97 27.0937 13.0322 27.0937 13.0788V13.452C27.0937 13.4987 27.1092 13.5609 27.1404 13.6386L26.3469 14.3384L27.0003 15.4579L27.9805 15.1314C28.0738 15.2247 28.1788 15.3063 28.2955 15.3763C28.4122 15.4463 28.5406 15.5046 28.6806 15.5512ZM30.3492 14.0934C30.1236 14.3189 29.8474 14.4317 29.5207 14.4317C29.194 14.4317 28.9178 14.3189 28.6922 14.0934C28.4667 13.868 28.3539 13.592 28.3539 13.2654C28.3539 12.9389 28.4667 12.6629 28.6922 12.4374C28.9178 12.2119 29.194 12.0992 29.5207 12.0992C29.8474 12.0992 30.1236 12.2119 30.3492 12.4374C30.5747 12.6629 30.6875 12.9389 30.6875 13.2654C30.6875 13.592 30.5747 13.868 30.3492 14.0934ZM10.3052 19.0543V33H17.8117V28.854H20.4036V33H27.9101V23.2003H23.8756V14.9083H14.3396V19.0543H10.3052ZM14.3396 31.4924H11.7723V28.854H14.3396V31.4924ZM14.3396 27.3463H11.7723V24.708H14.3396V27.3463ZM14.3396 23.2003H11.7723V20.562H14.3396V23.2003ZM18.3741 27.3463H15.8067V24.708H18.3741V27.3463ZM18.3741 23.2003H15.8067V20.562H18.3741V23.2003ZM18.3741 19.0543H15.8067V16.416H18.3741V19.0543ZM22.4086 27.3463H19.8412V24.708H22.4086V27.3463ZM22.4086 23.2003H19.8412V20.562H22.4086V23.2003ZM22.4086 19.0543H19.8412V16.416H22.4086V19.0543ZM26.443 31.4924H23.8756V28.854H26.443V31.4924ZM26.443 27.3463H23.8756V24.708H26.443V27.3463Z" fill="#131B2F"/>
</svg>
