<svg width="43" height="43" viewBox="0 0 43 43" fill="none" xmlns="http://www.w3.org/2000/svg">
<rect width="43" height="43" rx="21.5" fill="#F4F4F4"/>
<path d="M30.9058 20.3917V29.6667C30.9058 30.3083 30.7012 30.8576 30.2919 31.3146C29.8825 31.7715 29.3905 32 28.8157 32H14.1843C13.6095 32 13.1175 31.7715 12.7081 31.3146C12.2988 30.8576 12.0941 30.3083 12.0941 29.6667V20.3917C11.6935 19.9833 11.3844 19.4583 11.1666 18.8167C10.9489 18.175 10.9445 17.475 11.1536 16.7167L12.2509 12.75C12.3903 12.2444 12.6385 11.8264 12.9955 11.4958C13.3526 11.1653 13.7663 11 14.2366 11H28.7634C29.2337 11 29.643 11.1604 29.9914 11.4813C30.3398 11.8021 30.5923 12.225 30.7491 12.75L31.8464 16.7167C32.0555 17.475 32.0511 18.1653 31.8334 18.7875C31.6156 19.4097 31.3065 19.9444 30.9058 20.3917ZM23.7992 19.1667C24.2695 19.1667 24.6266 18.9868 24.8704 18.6271C25.1143 18.2674 25.2101 17.8639 25.1578 17.4167L24.583 13.3333H22.5451V17.65C22.5451 18.0583 22.667 18.4132 22.9109 18.7146C23.1547 19.016 23.4508 19.1667 23.7992 19.1667ZM19.0963 19.1667C19.4969 19.1667 19.8235 19.016 20.0761 18.7146C20.3286 18.4132 20.4549 18.0583 20.4549 17.65V13.3333H18.417L17.8422 17.4167C17.7725 17.8833 17.8639 18.2917 18.1165 18.6417C18.3691 18.9917 18.6957 19.1667 19.0963 19.1667ZM14.4456 19.1667C14.7591 19.1667 15.0335 19.0403 15.2686 18.7875C15.5038 18.5347 15.6475 18.2139 15.6997 17.825L16.2745 13.3333H14.2366L13.1915 17.2417C13.087 17.6306 13.1436 18.0486 13.3613 18.4958C13.5791 18.9431 13.9405 19.1667 14.4456 19.1667ZM28.5544 19.1667C29.0595 19.1667 29.4253 18.9431 29.6517 18.4958C29.8782 18.0486 29.9304 17.6306 29.8085 17.2417L28.7112 13.3333H26.7255L27.3003 17.825C27.3525 18.2139 27.4962 18.5347 27.7314 18.7875C27.9665 19.0403 28.2409 19.1667 28.5544 19.1667ZM14.1843 29.6667H28.8157V21.4417C28.7286 21.4806 28.672 21.5 28.6458 21.5H28.5544C28.0841 21.5 27.6704 21.4125 27.3133 21.2375C26.9563 21.0625 26.6035 20.7806 26.2552 20.3917C25.9417 20.7417 25.5846 21.0139 25.184 21.2083C24.7833 21.4028 24.3566 21.5 23.9037 21.5C23.4334 21.5 22.9936 21.4028 22.5843 21.2083C22.175 21.0139 21.8135 20.7417 21.5 20.3917C21.2039 20.7417 20.8599 21.0139 20.468 21.2083C20.0761 21.4028 19.6537 21.5 19.2008 21.5C18.6957 21.5 18.2384 21.4028 17.8291 21.2083C17.4198 21.0139 17.0583 20.7417 16.7448 20.3917C16.379 20.8 16.0176 21.0868 15.6605 21.2521C15.3035 21.4174 14.8985 21.5 14.4456 21.5H14.328C14.2845 21.5 14.2366 21.4806 14.1843 21.4417V29.6667Z" fill="#131B2F"/>
</svg>
