<svg width="43" height="43" viewBox="0 0 43 43" fill="none" xmlns="http://www.w3.org/2000/svg">
<rect width="43" height="43" rx="21.5" fill="#F4F4F4"/>
<path d="M11 31V29.5H20.7125V17.4C20.2575 17.25 19.8506 17.0042 19.4919 16.6625C19.1331 16.3208 18.875 15.9333 18.7175 15.5H14.5437L17.825 23.05C17.8075 23.8 17.4706 24.4375 16.8144 24.9625C16.1581 25.4875 15.3575 25.75 14.4125 25.75C13.4675 25.75 12.6669 25.4875 12.0106 24.9625C11.3544 24.4375 11.0175 23.8 11 23.05L14.2812 15.5H12.05V14H18.7175C18.9275 13.4167 19.2862 12.9375 19.7937 12.5625C20.3012 12.1875 20.87 12 21.5 12C22.13 12 22.6987 12.1875 23.2062 12.5625C23.7137 12.9375 24.0725 13.4167 24.2825 14H30.95V15.5H28.7187L32 23.05C31.9825 23.8 31.6456 24.4375 30.9894 24.9625C30.3331 25.4875 29.5325 25.75 28.5875 25.75C27.6425 25.75 26.8419 25.4875 26.1856 24.9625C25.5294 24.4375 25.1925 23.8 25.175 23.05L28.4562 15.5H24.2825C24.125 15.9333 23.8669 16.3208 23.5081 16.6625C23.1494 17.0042 22.7425 17.25 22.2875 17.4V29.5H32V31H11ZM26.6187 23H30.5562L28.5875 18.4L26.6187 23ZM12.4437 23H16.3812L14.4125 18.4L12.4437 23ZM21.5 16C21.8675 16 22.1781 15.875 22.4319 15.625C22.6856 15.375 22.8125 15.0833 22.8125 14.75C22.8125 14.4 22.6856 14.1042 22.4319 13.8625C22.1781 13.6208 21.8675 13.5 21.5 13.5C21.15 13.5 20.8437 13.6208 20.5812 13.8625C20.3187 14.1042 20.1875 14.4 20.1875 14.75C20.1875 15.0833 20.3187 15.375 20.5812 15.625C20.8437 15.875 21.15 16 21.5 16Z" fill="#131B2F"/>
</svg>
