<svg width="163" height="31" viewBox="0 0 163 31" fill="none" xmlns="http://www.w3.org/2000/svg">
<path d="M12.0266 19.029L14.3776 19.029C16.3473 19.029 17.9647 17.4294 17.9647 15.4456C17.9647 13.4848 16.3531 11.8853 14.3776 11.8853L12.0266 11.8853C11.9227 11.8853 11.8418 11.977 11.8418 12.0802L11.8418 18.834C11.8418 18.9372 11.9227 19.029 12.0266 19.029ZM12.8815 12.8542L14.2274 12.8542C15.7292 12.8542 16.821 13.9435 16.821 15.4456C16.821 16.9535 15.7292 18.06 14.2274 18.06L12.8815 18.06L12.8815 12.8542Z" fill="white"/>
<path d="M29.4015 19.0293L30.0773 19.0293C30.1813 19.0293 30.2737 18.9376 30.2737 18.8344L30.2737 12.0748C30.2737 11.9716 30.1813 11.8799 30.0773 11.8799L29.4015 11.8799C29.2975 11.8799 29.2051 11.9716 29.2051 12.0748L29.2051 18.8287C29.2051 18.9376 29.2975 19.0293 29.4015 19.0293Z" fill="white"/>
<path d="M41.3979 19.1262L42.0391 19.1262C42.1604 19.1262 42.2355 19.0631 42.2759 18.9714L42.6976 18.0426L46.458 18.0426C46.5966 18.3522 46.7352 18.6618 46.8739 18.9714C46.9027 19.0402 46.9836 19.1262 47.1107 19.1262L47.7519 19.1262C47.9078 19.1262 47.9887 18.9943 47.9252 18.8624L45.1005 12.6819L45.3027 12.229C45.32 12.1889 45.3027 12.143 45.2623 12.1258L44.5114 11.7933C44.4709 11.7761 44.4247 11.7933 44.4074 11.8334L42.6052 15.8066L41.2189 18.8682C41.1611 18.9943 41.242 19.1262 41.3979 19.1262ZM44.5518 13.9031L44.6038 13.9031L45.8515 16.701L46.0767 17.194L43.0788 17.194L44.5518 13.9031Z" fill="white"/>
<path d="M59.9402 19.127C61.419 19.127 62.476 18.4562 62.476 18.4562C62.5165 18.4275 62.5569 18.3415 62.5569 18.2956C62.5569 17.4815 62.5454 16.6444 62.5454 15.8246C62.5454 15.7214 62.4645 15.6296 62.3605 15.6296L59.7958 15.6296C59.6861 15.6296 59.5994 15.7099 59.5994 15.8246L59.5994 16.4151C59.5994 16.5183 59.6803 16.5986 59.7958 16.5986L61.4998 16.5986L61.4998 17.7395C61.3959 17.7796 60.8182 18.0892 59.9691 18.0892C58.5193 18.0892 57.4045 16.8623 57.4045 15.4462C57.4045 14.0186 58.5193 12.7917 59.9691 12.7917C60.593 12.7917 61.2284 13.0669 61.7078 13.4854C61.8118 13.5771 61.8926 13.5886 61.9735 13.4968C62.1295 13.3363 62.2796 13.1815 62.4356 13.0153C62.5165 12.935 62.5049 12.8089 62.4241 12.7286C61.7309 12.1381 60.9222 11.7769 59.9402 11.7769C57.907 11.7769 56.2607 13.4223 56.2607 15.4634C56.2665 17.5044 57.907 19.127 59.9402 19.127Z" fill="white"/>
<path d="M74.2432 19.127C76.288 19.127 77.9227 17.5044 77.9227 15.4634C77.9227 13.4223 76.288 11.7769 74.2432 11.7769C72.1983 11.7769 70.5752 13.4223 70.5752 15.4634C70.5752 17.5044 72.1983 19.127 74.2432 19.127ZM74.2432 12.8031C75.7046 12.8031 76.9003 14.0186 76.9003 15.4691C76.9003 16.9254 75.7046 18.1122 74.2432 18.1122C72.7933 18.1122 71.5976 16.9254 71.5976 15.4691C71.5976 14.0186 72.7933 12.8031 74.2432 12.8031Z" fill="white"/>
<path d="M86.2638 19.0917L86.9165 19.0917C87.032 19.0917 87.1129 18.9999 87.1129 18.8967L87.1129 13.8399L87.1244 13.8399L91.6357 19.2006L91.9072 19.2006C92.0112 19.2006 92.1036 19.1203 92.1036 19.0114L92.1036 12.0168C92.1036 11.9136 92.0112 11.8218 91.9072 11.8218L91.2429 11.8218C91.1274 11.8218 91.0466 11.9136 91.0466 12.0168L91.0466 16.9302L91.035 16.9302L86.5237 11.7129L86.2638 11.7129C86.1598 11.7129 86.0674 11.7932 86.0674 11.9021L86.0674 18.891C86.0674 18.9942 86.1598 19.0917 86.2638 19.0917Z" fill="white"/>
<path d="M100.745 19.1265L101.386 19.1265C101.507 19.1265 101.582 19.0635 101.623 18.9717L102.044 18.0429L105.805 18.0429C105.943 18.3525 106.082 18.6621 106.221 18.9717C106.25 19.0405 106.33 19.1265 106.458 19.1265L107.099 19.1265C107.255 19.1265 107.336 18.9947 107.272 18.8628L104.447 12.6766L104.65 12.2236C104.667 12.1835 104.65 12.1376 104.609 12.1204L103.858 11.7879C103.818 11.7707 103.772 11.7879 103.754 11.828L101.322 17.1944L101.322 17.2001L100.571 18.8628C100.514 18.9947 100.595 19.1265 100.745 19.1265ZM102.645 16.7013L103.904 13.9035L103.956 13.9035L105.204 16.7013L105.429 17.1944L102.431 17.1944L102.645 16.7013Z" fill="white"/>
<path d="M116.942 19.1949L120.581 19.1949C120.69 19.1949 120.777 19.1031 120.777 18.9999L120.777 18.4381C120.777 18.3349 120.696 18.2431 120.581 18.2431L117.814 18.2431L117.814 11.9078C117.814 11.8046 117.721 11.7129 117.617 11.7129L116.942 11.7129C116.832 11.7129 116.745 11.8046 116.745 11.9078L116.745 18.9999C116.745 19.1031 116.832 19.1949 116.942 19.1949Z" fill="white"/>
<path d="M0 5.37793L4.94359e-09 25.4674L162.43 25.4674L162.43 5.37793L0 5.37793ZM161.373 24.4182L1.05129 24.4182L1.05129 6.43286L161.373 6.43286L161.373 24.4182Z" fill="white"/>
<path d="M148.041 3.36545L128.968 31L124.081 27.6403L143.154 4.612e-09L148.041 3.36545Z" fill="#FFB71B"/>
<path d="M145.852 19.1955L150.022 19.1955C150.132 19.1955 150.224 19.098 150.224 18.9891L150.224 18.4731C150.224 18.3642 150.126 18.2667 150.022 18.2667L147.272 18.2667C147.908 17.5443 148.665 16.6614 149.236 15.9734C149.82 15.2739 150.27 14.7006 150.27 13.875C150.27 12.7455 149.45 11.7651 147.908 11.7651C146.626 11.7651 145.817 12.8201 145.817 12.8201C145.742 12.9061 145.765 13.0379 145.828 13.101L146.192 13.4679C146.279 13.5539 146.394 13.5539 146.481 13.4679C146.77 13.1583 147.255 12.7455 147.85 12.7455C148.797 12.7455 149.179 13.3705 149.179 13.9209C149.179 14.3509 148.896 14.8898 148.358 15.4918C147.561 16.4378 146.441 17.808 145.644 18.7139L145.644 18.9948C145.644 19.098 145.73 19.1955 145.852 19.1955Z" fill="white"/>
</svg>
