<svg width="92" height="92" viewBox="0 0 92 92" fill="none" xmlns="http://www.w3.org/2000/svg">
<path d="M66.0742 24.8561L31.977 74.6195L23.241 68.5694L57.3382 18.7957L66.0742 24.8561Z" fill="#DCDCDC"/>
<path d="M58.0224 60.3509H69.3375C69.6353 60.3509 69.8861 60.084 69.8861 59.7857V58.3729C69.8861 58.0746 69.6196 57.8078 69.3375 57.8078H61.8777C63.6016 55.8298 65.6546 53.4123 67.2061 51.5285C68.789 49.6134 70.0114 48.0435 70.0114 45.783C70.0114 42.6905 67.786 40.0061 63.6016 40.0061C60.1225 40.0061 57.9284 42.8946 57.9284 42.8946C57.7247 43.13 57.7873 43.4911 57.9597 43.6638L58.9471 44.6684C59.1822 44.9039 59.4956 44.9039 59.7307 44.6684C60.5143 43.8207 61.8307 42.6905 63.4449 42.6905C66.0151 42.6905 67.0494 44.4016 67.0494 45.9086C67.0494 47.086 66.2815 48.5616 64.824 50.2099C62.6613 52.8001 59.621 56.5519 57.4583 59.0322V59.8014C57.4583 60.084 57.6933 60.3509 58.0224 60.3509Z" fill="#DCDCDC"/>
</svg>
