<svg width="34" height="35" viewBox="0 0 34 35" fill="none" xmlns="http://www.w3.org/2000/svg">
<path fill-rule="evenodd" clip-rule="evenodd" d="M24.7159 15.9376L24.9285 17.0001H26.3459L26.5585 15.9376C26.7003 15.8904 26.8361 15.8373 26.966 15.7782C27.096 15.7192 27.22 15.6307 27.3381 15.5126L28.3303 15.8668L29.039 14.5918L28.2594 13.8834V13.0334L29.039 12.3251L28.3303 11.0501L27.3381 11.4043C27.2436 11.3098 27.1255 11.2272 26.9837 11.1563C26.842 11.0855 26.7003 11.0265 26.5585 10.9793L26.3459 9.91674H24.9285L24.7159 10.9793C24.5741 11.0265 24.4324 11.0855 24.2906 11.1563C24.1489 11.2272 24.0308 11.3098 23.9363 11.4043L22.9441 11.0501L22.2354 12.3251L23.015 13.0334V13.8834L22.2354 14.5918L22.9441 15.8668L23.9363 15.5126C24.0544 15.6307 24.1784 15.7192 24.3084 15.7782C24.4383 15.8373 24.5741 15.8904 24.7159 15.9376ZM26.3813 14.2022C26.1687 14.4147 25.9207 14.5209 25.6372 14.5209C25.3537 14.5209 25.1057 14.4147 24.893 14.2022C24.6804 13.9897 24.5741 13.7418 24.5741 13.4584C24.5741 13.1751 24.6804 12.9272 24.893 12.7147C25.1057 12.5022 25.3537 12.3959 25.6372 12.3959C25.9207 12.3959 26.1687 12.5022 26.3813 12.7147C26.594 12.9272 26.7003 13.1751 26.7003 13.4584C26.7003 13.7418 26.594 13.9897 26.3813 14.2022ZM27.9051 8.42923L28.1885 9.91674H30.1729L30.4564 8.42923C30.669 8.3584 30.8639 8.26986 31.0411 8.16361C31.2183 8.05735 31.3777 7.9334 31.5195 7.79173L33.0078 8.28757L34 6.58755L32.7952 5.52504C32.8424 5.40699 32.866 5.31254 32.866 5.24171V4.67504C32.866 4.6042 32.8424 4.50976 32.7952 4.3917L34 3.32919L33.0078 1.62918L31.5195 2.12502C31.3777 1.98335 31.2183 1.85939 31.0411 1.75314C30.8639 1.64689 30.669 1.55835 30.4564 1.48751L30.1729 0H28.1885L27.9051 1.48751C27.6925 1.55835 27.4976 1.64689 27.3204 1.75314C27.1432 1.85939 26.9837 1.98335 26.842 2.12502L25.3537 1.62918L24.3615 3.32919L25.5663 4.3917C25.5191 4.50976 25.4954 4.6042 25.4954 4.67504V5.24171C25.4954 5.31254 25.5191 5.40699 25.5663 5.52504L24.3615 6.58755L25.3537 8.28757L26.842 7.79173C26.9837 7.9334 27.1432 8.05735 27.3204 8.16361C27.4976 8.26986 27.6925 8.3584 27.9051 8.42923ZM30.4387 6.21567C30.0962 6.55804 29.6768 6.72922 29.1807 6.72922C28.6846 6.72922 28.2653 6.55804 27.9228 6.21567C27.5802 5.87331 27.409 5.45421 27.409 4.95837C27.409 4.46253 27.5802 4.04343 27.9228 3.70107C28.2653 3.35871 28.6846 3.18753 29.1807 3.18753C29.6768 3.18753 30.0962 3.35871 30.4387 3.70107C30.7812 4.04343 30.9525 4.46253 30.9525 4.95837C30.9525 5.45421 30.7812 5.87331 30.4387 6.21567ZM0 13.7488V34.9245H11.3983V28.629H15.3338V34.9245H26.7321V20.0443H20.606V7.45328H6.12611V13.7488H0ZM6.12611 32.6352H2.22767V28.629H6.12611V32.6352ZM6.12611 26.3397H2.22767V22.3335H6.12611V26.3397ZM6.12611 20.0443H2.22767V16.038H6.12611V20.0443ZM12.2522 26.3397H8.35378V22.3335H12.2522V26.3397ZM12.2522 20.0443H8.35378V16.038H12.2522V20.0443ZM12.2522 13.7488H8.35378V9.74254H12.2522V13.7488ZM18.3783 26.3397H14.4799V22.3335H18.3783V26.3397ZM18.3783 20.0443H14.4799V16.038H18.3783V20.0443ZM18.3783 13.7488H14.4799V9.74254H18.3783V13.7488ZM24.5044 32.6352H20.606V28.629H24.5044V32.6352ZM24.5044 26.3397H20.606V22.3335H24.5044V26.3397Z" fill="black"/>
</svg>
