<svg width="256" height="87" viewBox="0 0 256 87" fill="none" xmlns="http://www.w3.org/2000/svg">
<path d="M31.7337 35.7811L35.0048 35.7811C37.7454 35.7811 39.9958 33.6139 39.9958 30.9263C39.9958 28.2697 37.7534 26.1025 35.0048 26.1025L31.7337 26.1025C31.5891 26.1025 31.4766 26.2268 31.4766 26.3666L31.4766 35.517C31.4766 35.6568 31.5891 35.7811 31.7337 35.7811ZM32.9232 27.4153L34.7958 27.4153C36.8855 27.4153 38.4044 28.8911 38.4044 30.9263C38.4044 32.9692 36.8855 34.4684 34.7958 34.4684L32.9232 34.4684L32.9232 27.4153Z" fill="white"/>
<path d="M55.908 35.7815L56.8484 35.7815C56.993 35.7815 57.1216 35.6573 57.1216 35.5174L57.1216 26.3593C57.1216 26.2195 56.993 26.0952 56.8484 26.0952L55.908 26.0952C55.7634 26.0952 55.6348 26.2195 55.6348 26.3593L55.6348 35.5097C55.6348 35.6573 55.7634 35.7815 55.908 35.7815Z" fill="white"/>
<path d="M72.6003 35.9131L73.4924 35.9131C73.6612 35.9131 73.7657 35.8277 73.8219 35.7034L74.4086 34.445L79.6407 34.445C79.8336 34.8645 80.0265 35.284 80.2194 35.7034C80.2596 35.7966 80.3721 35.9131 80.5489 35.9131L81.441 35.9131C81.658 35.9131 81.7705 35.7345 81.6821 35.5558L77.752 27.1822L78.0333 26.5686C78.0574 26.5142 78.0333 26.4521 77.9771 26.4288L76.9323 25.9782C76.876 25.9549 76.8117 25.9782 76.7876 26.0326L74.2801 31.4156L72.3512 35.5636C72.2708 35.7345 72.3833 35.9131 72.6003 35.9131ZM76.9885 28.8368L77.0608 28.8368L78.7968 32.6274L79.1103 33.2954L74.9391 33.2954L76.9885 28.8368Z" fill="white"/>
<path d="M98.3989 35.9138C100.456 35.9138 101.927 35.0049 101.927 35.0049C101.983 34.9661 102.04 34.8496 102.04 34.7875C102.04 33.6844 102.024 32.5504 102.024 31.4396C102.024 31.2998 101.911 31.1755 101.766 31.1755L98.1979 31.1755C98.0452 31.1755 97.9247 31.2842 97.9247 31.4396L97.9247 32.2396C97.9247 32.3795 98.0372 32.4882 98.1979 32.4882L100.569 32.4882L100.569 34.034C100.424 34.0884 99.6205 34.5078 98.439 34.5078C96.4218 34.5078 94.8706 32.8455 94.8706 30.9269C94.8706 28.9927 96.4218 27.3305 98.439 27.3305C99.307 27.3305 100.191 27.7033 100.858 28.2703C101.003 28.3946 101.115 28.4102 101.228 28.2859C101.445 28.0684 101.654 27.8587 101.871 27.6334C101.983 27.5246 101.967 27.3538 101.855 27.245C100.89 26.4449 99.7651 25.9556 98.3989 25.9556C95.5698 25.9556 93.2793 28.1849 93.2793 30.9502C93.2873 33.7155 95.5698 35.9138 98.3989 35.9138Z" fill="white"/>
<path d="M118.3 35.9138C121.145 35.9138 123.419 33.7155 123.419 30.9502C123.419 28.1849 121.145 25.9556 118.3 25.9556C115.455 25.9556 113.196 28.1849 113.196 30.9502C113.196 33.7155 115.455 35.9138 118.3 35.9138ZM118.3 27.346C120.333 27.346 121.997 28.9927 121.997 30.958C121.997 32.931 120.333 34.5389 118.3 34.5389C116.282 34.5389 114.619 32.931 114.619 30.958C114.619 28.9927 116.282 27.346 118.3 27.346Z" fill="white"/>
<path d="M135.024 35.8662L135.932 35.8662C136.093 35.8662 136.206 35.7419 136.206 35.6021L136.206 28.751L136.222 28.751L142.499 36.0138L142.876 36.0138C143.021 36.0138 143.15 35.905 143.15 35.7574L143.15 26.2808C143.15 26.141 143.021 26.0167 142.876 26.0167L141.952 26.0167C141.791 26.0167 141.679 26.141 141.679 26.2808L141.679 32.9378L141.663 32.9378L135.386 25.8691L135.024 25.8691C134.88 25.8691 134.751 25.9779 134.751 26.1255L134.751 35.5943C134.751 35.7341 134.88 35.8662 135.024 35.8662Z" fill="white"/>
<path d="M155.173 35.9136L156.066 35.9136C156.234 35.9136 156.339 35.8281 156.395 35.7039L156.982 34.4455L162.214 34.4455C162.407 34.8649 162.6 35.2844 162.792 35.7039C162.833 35.7971 162.945 35.9136 163.122 35.9136L164.014 35.9136C164.231 35.9136 164.344 35.7349 164.255 35.5563L160.325 27.1749L160.606 26.5613C160.631 26.5069 160.606 26.4447 160.55 26.4214L159.505 25.9709C159.449 25.9476 159.385 25.9709 159.361 26.0253L155.977 33.2959L155.977 33.3036L154.932 35.5563C154.852 35.7349 154.964 35.9136 155.173 35.9136ZM157.818 32.6278L159.57 28.8372L159.642 28.8372L161.378 32.6278L161.691 33.2959L157.52 33.2959L157.818 32.6278Z" fill="white"/>
<path d="M177.709 36.006L182.772 36.006C182.925 36.006 183.045 35.8817 183.045 35.7419L183.045 34.9807C183.045 34.8408 182.933 34.7166 182.772 34.7166L178.922 34.7166L178.922 26.1332C178.922 25.9934 178.794 25.8691 178.649 25.8691L177.709 25.8691C177.556 25.8691 177.436 25.9934 177.436 26.1332L177.436 35.7419C177.436 35.8817 177.556 36.006 177.709 36.006Z" fill="white"/>
<path d="M15 17.2861L15 44.5042L241 44.5042L241 17.2861L15 17.2861ZM239.529 43.0827L16.4627 43.0827L16.4627 18.7154L239.529 18.7154L239.529 43.0827Z" fill="white"/>
<path d="M220.98 14.5596L194.442 52L187.643 47.4481L214.181 10L220.98 14.5596Z" fill="#FFB71B"/>
<path d="M217.934 36.0069L223.737 36.0069C223.889 36.0069 224.018 35.8748 224.018 35.7273L224.018 35.0282C224.018 34.8806 223.881 34.7485 223.737 34.7485L219.911 34.7485C220.795 33.7698 221.848 32.5736 222.644 31.6414C223.455 30.6938 224.082 29.917 224.082 28.7985C224.082 27.2682 222.941 25.9399 220.795 25.9399C219.011 25.9399 217.886 27.3692 217.886 27.3692C217.781 27.4857 217.813 27.6644 217.902 27.7498L218.408 28.247C218.529 28.3635 218.689 28.3635 218.81 28.247C219.212 27.8275 219.887 27.2682 220.715 27.2682C222.033 27.2682 222.563 28.1149 222.563 28.8606C222.563 29.4432 222.169 30.1733 221.422 30.989C220.313 32.2706 218.754 34.1271 217.645 35.3544L217.645 35.735C217.645 35.8748 217.765 36.0069 217.934 36.0069Z" fill="white"/>
<path d="M15.1514 69.3015C15.1514 69.1986 15.2395 69.1035 15.3517 69.1035L18.388 69.1035C19.6618 69.1035 20.7033 70.0857 20.7033 71.3055C20.7033 72.2481 20.0544 73.0165 19.1331 73.3729L20.5911 75.971C20.6632 76.1056 20.5911 76.264 20.4069 76.264L19.2933 76.264C19.1971 76.264 19.1411 76.2165 19.125 76.169L17.715 73.46L16.5293 73.46L16.5293 76.0739C16.5293 76.1769 16.4332 76.272 16.329 76.272L15.3517 76.272C15.2395 76.272 15.1514 76.1769 15.1514 76.0739L15.1514 69.3015ZM18.2758 72.3669C18.8366 72.3669 19.3253 71.8996 19.3253 71.3214C19.3253 70.7828 18.8366 70.3313 18.2758 70.3313L16.5454 70.3313L16.5454 72.3669L18.2758 72.3669Z" fill="white"/>
<path d="M28.6025 69.3015C28.6025 69.1986 28.6907 69.1035 28.8028 69.1035L33.129 69.1035C33.2492 69.1035 33.3293 69.1986 33.3293 69.3015L33.3293 70.1412C33.3293 70.2441 33.2412 70.3392 33.129 70.3392L29.9805 70.3392L29.9805 72.0184L32.6083 72.0184C32.7124 72.0184 32.8086 72.1135 32.8086 72.2164L32.8086 73.064C32.8086 73.1749 32.7124 73.262 32.6083 73.262L29.9805 73.262L29.9805 75.0521L33.129 75.0521C33.2492 75.0521 33.3293 75.1472 33.3293 75.2502L33.3293 76.0898C33.3293 76.1928 33.2412 76.2878 33.129 76.2878L28.8028 76.2878C28.6827 76.2878 28.6025 76.1928 28.6025 76.0898L28.6025 69.3015Z" fill="white"/>
<path d="M40.2602 76.0021L43.5609 69.1109C43.593 69.0475 43.6491 69 43.7452 69L43.8493 69C43.9535 69 44.0016 69.0475 44.0336 69.1109L47.3103 76.0021C47.3744 76.1368 47.2862 76.2714 47.126 76.2714L46.2047 76.2714C46.0445 76.2714 45.9724 76.2081 45.9003 76.0655L45.3795 74.9565L42.199 74.9565L41.6782 76.0655C41.6382 76.1685 41.5421 76.2714 41.3738 76.2714L40.4525 76.2714C40.2843 76.2714 40.1961 76.1368 40.2602 76.0021ZM44.8508 73.8239L43.7853 71.5743L43.7532 71.5743L42.7117 73.8239L44.8508 73.8239Z" fill="white"/>
<path d="M54.6484 69.3015C54.6484 69.1986 54.7366 69.1035 54.8487 69.1035L55.8261 69.1035C55.9303 69.1035 56.0264 69.1986 56.0264 69.3015L56.0264 75.0442L58.7343 75.0442C58.8545 75.0442 58.9346 75.1393 58.9346 75.2422L58.9346 76.0819C58.9346 76.1848 58.8464 76.2799 58.7343 76.2799L54.8487 76.2799C54.7286 76.2799 54.6484 76.1848 54.6484 76.0819L54.6484 69.3015Z" fill="white"/>
<path d="M75.1172 69.3015C75.1172 69.1986 75.2053 69.1035 75.3175 69.1035L79.6437 69.1035C79.7638 69.1035 79.8439 69.1986 79.8439 69.3015L79.8439 70.1412C79.8439 70.2441 79.7558 70.3392 79.6437 70.3392L76.4952 70.3392L76.4952 72.0184L79.1229 72.0184C79.2271 72.0184 79.3232 72.1135 79.3232 72.2164L79.3232 73.064C79.3232 73.1749 79.2271 73.262 79.1229 73.262L76.4952 73.262L76.4952 75.0521L79.6437 75.0521C79.7638 75.0521 79.8439 75.1472 79.8439 75.2502L79.8439 76.0898C79.8439 76.1928 79.7558 76.2878 79.6437 76.2878L75.3175 76.2878C75.1973 76.2878 75.1172 76.1928 75.1172 76.0898L75.1172 69.3015Z" fill="white"/>
<path d="M87.3103 75.2655L87.6949 74.6318C87.783 74.4892 87.9593 74.4892 88.0554 74.5605C88.1115 74.5922 88.9687 75.1942 89.6577 75.1942C90.2105 75.1942 90.6271 74.8457 90.6271 74.4021C90.6271 73.8793 90.1704 73.5229 89.2811 73.1743C88.2797 72.7862 87.2863 72.1684 87.2863 70.9644C87.2863 70.0535 87.9913 69 89.6737 69C90.7552 69 91.5884 69.5307 91.7967 69.6891C91.9009 69.7525 91.9329 69.9268 91.8608 70.0297L91.4603 70.6159C91.3721 70.7347 91.2119 70.8218 91.0917 70.7347C91.0036 70.6872 90.2025 70.1723 89.6176 70.1723C89.0088 70.1723 88.6803 70.5604 88.6803 70.8852C88.6803 71.3684 89.0728 71.6931 89.9381 72.0337C90.9716 72.4298 92.1572 73.0238 92.1572 74.3466C92.1572 75.4001 91.2119 76.3744 89.7138 76.3744C88.3759 76.3744 87.5907 75.7724 87.3744 75.5744C87.2623 75.4793 87.2142 75.4318 87.3103 75.2655Z" fill="white"/>
<path d="M100.882 70.3304L99.256 70.3304C99.1358 70.3304 99.0557 70.2353 99.0557 70.1324L99.0557 69.2928C99.0557 69.1898 99.1438 69.0947 99.256 69.0947L103.903 69.0947C104.023 69.0947 104.103 69.1898 104.103 69.2928L104.103 70.1324C104.103 70.2353 104.015 70.3304 103.903 70.3304L102.276 70.3304L102.276 76.0731C102.276 76.176 102.18 76.2711 102.076 76.2711L101.091 76.2711C100.986 76.2711 100.89 76.176 100.89 76.0731L100.89 70.3304L100.882 70.3304Z" fill="white"/>
<path d="M110.207 76.0021L113.507 69.1109C113.539 69.0475 113.595 69 113.691 69L113.796 69C113.9 69 113.948 69.0475 113.98 69.1109L117.257 76.0021C117.321 76.1368 117.233 76.2714 117.072 76.2714L116.151 76.2714C115.991 76.2714 115.919 76.2081 115.847 76.0655L115.326 74.9565L112.145 74.9565L111.625 76.0655C111.584 76.1685 111.488 76.2714 111.32 76.2714L110.399 76.2714C110.231 76.2714 110.142 76.1368 110.207 76.0021ZM114.797 73.8239L113.732 71.5743L113.7 71.5743L112.658 73.8239L114.797 73.8239Z" fill="white"/>
<path d="M125.205 70.3304L123.578 70.3304C123.458 70.3304 123.378 70.2353 123.378 70.1324L123.378 69.2928C123.378 69.1898 123.466 69.0947 123.578 69.0947L128.225 69.0947C128.345 69.0947 128.425 69.1898 128.425 69.2928L128.425 70.1324C128.425 70.2353 128.337 70.3304 128.225 70.3304L126.599 70.3304L126.599 76.0731C126.599 76.176 126.502 76.2711 126.398 76.2711L125.413 76.2711C125.309 76.2711 125.213 76.176 125.213 76.0731L125.213 70.3304L125.205 70.3304Z" fill="white"/>
<path d="M135.908 69.3015C135.908 69.1986 135.996 69.1035 136.108 69.1035L140.435 69.1035C140.555 69.1035 140.635 69.1986 140.635 69.3015L140.635 70.1412C140.635 70.2441 140.547 70.3392 140.435 70.3392L137.286 70.3392L137.286 72.0184L139.914 72.0184C140.018 72.0184 140.114 72.1135 140.114 72.2164L140.114 73.064C140.114 73.1749 140.018 73.262 139.914 73.262L137.286 73.262L137.286 75.0521L140.435 75.0521C140.555 75.0521 140.635 75.1472 140.635 75.2502L140.635 76.0898C140.635 76.1928 140.547 76.2878 140.435 76.2878L136.108 76.2878C135.988 76.2878 135.908 76.1928 135.908 76.0898L135.908 69.3015Z" fill="white"/>
<path d="M157.25 69.3015C157.25 69.1986 157.338 69.1035 157.45 69.1035L159.95 69.1035C161.256 69.1035 162.329 70.1253 162.329 71.3689C162.329 72.6363 161.256 73.6739 159.958 73.6739L158.628 73.6739L158.628 76.0819C158.628 76.1848 158.532 76.2799 158.428 76.2799L157.45 76.2799C157.33 76.2799 157.25 76.1848 157.25 76.0819L157.25 69.3015ZM159.87 72.4224C160.463 72.4224 160.967 71.963 160.967 71.361C160.967 70.7986 160.471 70.3709 159.87 70.3709L158.636 70.3709L158.636 72.4303L159.87 72.4303L159.87 72.4224Z" fill="white"/>
<path d="M168.539 76.0021L171.839 69.1109C171.871 69.0475 171.927 69 172.024 69L172.128 69C172.232 69 172.28 69.0475 172.312 69.1109L175.589 76.0021C175.653 76.1368 175.565 76.2714 175.404 76.2714L174.483 76.2714C174.323 76.2714 174.251 76.2081 174.179 76.0655L173.658 74.9565L170.477 74.9565L169.957 76.0655C169.917 76.1685 169.82 76.2714 169.652 76.2714L168.731 76.2714C168.563 76.2714 168.474 76.1368 168.539 76.0021ZM173.129 73.8239L172.064 71.5743L172.032 71.5743L170.99 73.8239L173.129 73.8239Z" fill="white"/>
<path d="M182.927 69.3015C182.927 69.1986 183.015 69.1035 183.127 69.1035L186.163 69.1035C187.437 69.1035 188.479 70.0857 188.479 71.3055C188.479 72.2481 187.83 73.0165 186.908 73.3729L188.367 75.971C188.439 76.1056 188.367 76.2641 188.182 76.2641L187.069 76.2641C186.973 76.2641 186.916 76.2165 186.9 76.169L185.49 73.46L184.313 73.46L184.313 76.0739C184.313 76.1769 184.217 76.272 184.112 76.272L183.135 76.272C183.015 76.272 182.935 76.1769 182.935 76.0739L182.935 69.3015L182.927 69.3015ZM186.051 72.3669C186.612 72.3669 187.101 71.8996 187.101 71.3214C187.101 70.7828 186.612 70.3313 186.051 70.3313L184.321 70.3313L184.321 72.3669L186.051 72.3669Z" fill="white"/>
<path d="M197.379 70.3304L195.753 70.3304C195.633 70.3304 195.553 70.2353 195.553 70.1324L195.553 69.2928C195.553 69.1898 195.641 69.0947 195.753 69.0947L200.4 69.0947C200.52 69.0947 200.6 69.1898 200.6 69.2928L200.6 70.1324C200.6 70.2353 200.512 70.3304 200.4 70.3304L198.773 70.3304L198.773 76.0731C198.773 76.176 198.677 76.2711 198.573 76.2711L197.588 76.2711C197.483 76.2711 197.387 76.176 197.387 76.0731L197.387 70.3304L197.379 70.3304Z" fill="white"/>
<path d="M208.083 69.1822C208.083 69.0792 208.179 69 208.283 69L208.548 69L212.97 73.5229L212.978 73.5229L212.978 69.2931C212.978 69.1901 213.066 69.0951 213.178 69.0951L214.156 69.0951C214.26 69.0951 214.356 69.1901 214.356 69.2931L214.356 76.1843C214.356 76.2873 214.26 76.3665 214.156 76.3665L213.899 76.3665L209.461 71.6694L209.453 71.6694L209.453 76.0734C209.453 76.1764 209.365 76.2714 209.253 76.2714L208.283 76.2714C208.179 76.2714 208.083 76.1764 208.083 76.0734L208.083 69.1822Z" fill="white"/>
<path d="M222.672 69.3015C222.672 69.1986 222.76 69.1035 222.872 69.1035L227.198 69.1035C227.318 69.1035 227.399 69.1986 227.399 69.3015L227.399 70.1412C227.399 70.2441 227.31 70.3392 227.198 70.3392L224.05 70.3392L224.05 72.0184L226.678 72.0184C226.782 72.0184 226.878 72.1135 226.878 72.2164L226.878 73.064C226.878 73.1749 226.782 73.262 226.678 73.262L224.05 73.262L224.05 75.0521L227.198 75.0521C227.318 75.0521 227.399 75.1472 227.399 75.2502L227.399 76.0898C227.399 76.1928 227.31 76.2878 227.198 76.2878L222.872 76.2878C222.752 76.2878 222.672 76.1928 222.672 76.0898L222.672 69.3015Z" fill="white"/>
<path d="M235.298 69.3015C235.298 69.1986 235.386 69.1035 235.498 69.1035L238.534 69.1035C239.808 69.1035 240.85 70.0857 240.85 71.3055C240.85 72.2481 240.201 73.0165 239.28 73.3729L240.738 75.971C240.81 76.1056 240.738 76.2641 240.553 76.2641L239.44 76.2641C239.344 76.2641 239.288 76.2165 239.272 76.169L237.861 73.46L236.684 73.46L236.684 76.0739C236.684 76.1769 236.588 76.272 236.484 76.272L235.506 76.272C235.386 76.272 235.306 76.1769 235.306 76.0739L235.306 69.3015L235.298 69.3015ZM238.422 72.3669C238.983 72.3669 239.472 71.8996 239.472 71.3214C239.472 70.7828 238.983 70.3313 238.422 70.3313L236.692 70.3313L236.692 72.3669L238.422 72.3669Z" fill="white"/>
</svg>
