<svg width="78" height="78" viewBox="0 0 78 78" fill="none" xmlns="http://www.w3.org/2000/svg">
<rect width="78" height="78" rx="39" fill="#13161D"/>
<path d="M59.0742 17.8561L24.977 67.6195L16.241 61.5694L50.3382 11.7957L59.0742 17.8561Z" fill="#FFB71B"/>
<path d="M51.0222 53.3509H62.3373C62.635 53.3509 62.8858 53.084 62.8858 52.7857V51.3729C62.8858 51.0746 62.6194 50.8078 62.3373 50.8078H54.8775C56.6014 48.8298 58.6544 46.4123 60.2059 44.5285C61.7887 42.6134 63.0112 41.0435 63.0112 38.783C63.0112 35.6905 60.7858 33.0061 56.6014 33.0061C53.1222 33.0061 50.9282 35.8946 50.9282 35.8946C50.7244 36.13 50.7871 36.4911 50.9595 36.6638L51.9468 37.6684C52.1819 37.9039 52.4953 37.9039 52.7304 37.6684C53.514 36.8207 54.8304 35.6905 56.4446 35.6905C59.0148 35.6905 60.0492 37.4016 60.0492 38.9086C60.0492 40.086 59.2813 41.5616 57.8238 43.2099C55.6611 45.8001 52.6207 49.5519 50.458 52.0322V52.8014C50.458 53.084 50.6931 53.3509 51.0222 53.3509Z" fill="white"/>
</svg>
