<svg width="21" height="21" viewBox="0 0 21 21" fill="none" xmlns="http://www.w3.org/2000/svg">
<path d="M10.5004 10.5C10.7837 10.5 11.0212 10.5958 11.2129 10.7875C11.4046 10.9792 11.5004 11.2167 11.5004 11.5C11.5004 11.7833 11.4046 12.0208 11.2129 12.2125C11.0212 12.4042 10.7837 12.5 10.5004 12.5C10.2171 12.5 9.97956 12.4042 9.78789 12.2125C9.59622 12.0208 9.50039 11.7833 9.50039 11.5C9.50039 11.2167 9.59622 10.9792 9.78789 10.7875C9.97956 10.5958 10.2171 10.5 10.5004 10.5ZM10.5004 14.5C10.7837 14.5 11.0212 14.5958 11.2129 14.7875C11.4046 14.9792 11.5004 15.2167 11.5004 15.5C11.5004 15.7833 11.4046 16.0208 11.2129 16.2125C11.0212 16.4042 10.7837 16.5 10.5004 16.5C10.2171 16.5 9.97956 16.4042 9.78789 16.2125C9.59622 16.0208 9.50039 15.7833 9.50039 15.5C9.50039 15.2167 9.59622 14.9792 9.78789 14.7875C9.97956 14.5958 10.2171 14.5 10.5004 14.5ZM10.5004 18.5C10.7837 18.5 11.0212 18.5958 11.2129 18.7875C11.4046 18.9792 11.5004 19.2167 11.5004 19.5C11.5004 19.7833 11.4046 20.0208 11.2129 20.2125C11.0212 20.4042 10.7837 20.5 10.5004 20.5C10.2171 20.5 9.97956 20.4042 9.78789 20.2125C9.59622 20.0208 9.50039 19.7833 9.50039 19.5C9.50039 19.2167 9.59622 18.9792 9.78789 18.7875C9.97956 18.5958 10.2171 18.5 10.5004 18.5ZM7.50039 8.5C7.78372 8.5 8.02122 8.59583 8.21289 8.7875C8.40456 8.97917 8.50039 9.21667 8.50039 9.5C8.50039 9.78333 8.40456 10.0208 8.21289 10.2125C8.02122 10.4042 7.78372 10.5 7.50039 10.5C7.21706 10.5 6.97956 10.4042 6.78789 10.2125C6.59622 10.0208 6.50039 9.78333 6.50039 9.5C6.50039 9.21667 6.59622 8.97916 6.78789 8.7875C6.97956 8.59583 7.21706 8.5 7.50039 8.5ZM4.67539 11.35C4.95872 11.35 5.19622 11.4458 5.38789 11.6375C5.57956 11.8292 5.67539 12.0667 5.67539 12.35C5.67539 12.6333 5.57956 12.8708 5.38789 13.0625C5.19622 13.2542 4.95872 13.35 4.67539 13.35C4.39206 13.35 4.15456 13.2542 3.96289 13.0625C3.77122 12.8708 3.67539 12.6333 3.67539 12.35C3.67539 12.0667 3.77122 11.8292 3.96289 11.6375C4.15456 11.4458 4.39206 11.35 4.67539 11.35ZM1.85039 14.15C2.13372 14.15 2.37122 14.2458 2.56289 14.4375C2.75456 14.6292 2.85039 14.8667 2.85039 15.15C2.85039 15.4333 2.75456 15.6708 2.56289 15.8625C2.37122 16.0542 2.13372 16.15 1.85039 16.15C1.56706 16.15 1.32956 16.0542 1.13789 15.8625C0.946223 15.6708 0.85039 15.4333 0.85039 15.15C0.85039 14.8667 0.946223 14.6292 1.13789 14.4375C1.32956 14.2458 1.56706 14.15 1.85039 14.15ZM13.5004 8.5C13.7837 8.5 14.0212 8.59583 14.2129 8.7875C14.4046 8.97917 14.5004 9.21667 14.5004 9.5C14.5004 9.78333 14.4046 10.0208 14.2129 10.2125C14.0212 10.4042 13.7837 10.5 13.5004 10.5C13.2171 10.5 12.9796 10.4042 12.7879 10.2125C12.5962 10.0208 12.5004 9.78333 12.5004 9.5C12.5004 9.21667 12.5962 8.97917 12.7879 8.7875C12.9796 8.59583 13.2171 8.5 13.5004 8.5ZM16.3254 11.35C16.6087 11.35 16.8462 11.4458 17.0379 11.6375C17.2296 11.8292 17.3254 12.0667 17.3254 12.35C17.3254 12.6333 17.2296 12.8708 17.0379 13.0625C16.8462 13.2542 16.6087 13.35 16.3254 13.35C16.0421 13.35 15.8046 13.2542 15.6129 13.0625C15.4212 12.8708 15.3254 12.6333 15.3254 12.35C15.3254 12.0667 15.4212 11.8292 15.6129 11.6375C15.8046 11.4458 16.0421 11.35 16.3254 11.35ZM19.1504 14.15C19.4337 14.15 19.6712 14.2458 19.8629 14.4375C20.0546 14.6292 20.1504 14.8667 20.1504 15.15C20.1504 15.4333 20.0546 15.6708 19.8629 15.8625C19.6712 16.0542 19.4337 16.15 19.1504 16.15C18.8671 16.15 18.6296 16.0542 18.4379 15.8625C18.2462 15.6708 18.1504 15.4333 18.1504 15.15C18.1504 14.8667 18.2462 14.6292 18.4379 14.4375C18.6296 14.2458 18.8671 14.15 19.1504 14.15ZM11.5004 0.499999L11.5004 4.5L15.5004 4.5L15.5004 6.5L5.50039 6.5L5.50039 4.5L9.50039 4.5L9.50039 0.499999L11.5004 0.499999Z" fill="#FFD966"/>
</svg>
